<?xml version="1.0" encoding="utf-8"?>
<!-- Generator: Adobe Illustrator 24.2.3, SVG Export Plug-In . SVG Version: 6.00 Build 0)  -->
<svg version="1.1" id="Capa_1" xmlns="http://www.w3.org/2000/svg" xmlns:xlink="http://www.w3.org/1999/xlink" x="0px" y="0px"
	 viewBox="0 0 70.8 29" style="enable-background:new 0 0 70.8 29;" xml:space="preserve">
<style type="text/css">
	.st0{fill:#B4BF21;}
</style>
<g>
	<g>
		<path d="M1.3,13.9v0.2c0,0.2,0.1,0.3,0.1,0.5c0.2,0.3,0.6,0.5,1,0.5c1.1,0,2.3-0.8,3.6-2.4c0.2-0.3,0.4-0.4,0.6-0.4
			c0.1,0,0.2,0,0.3,0.1c0.1,0.1,0.1,0.1,0.1,0.2c0,0.3-0.4,0.9-1.2,1.7c-0.6,0.6-1.3,1.1-2,1.5s-1.4,0.6-2,0.6
			c-0.6,0-1.1-0.2-1.5-0.6C0.1,15.4,0,15,0,14.5c0-1.4,0.7-2.8,2-4.2c1.1-1.1,2-1.7,2.8-1.7c0.2,0,0.4,0.1,0.6,0.2
			C5.7,9,5.8,9.3,5.8,9.5c0,0.4-0.2,1-0.6,1.6C4.3,12.5,3,13.4,1.3,13.9z M1.6,13c0.6-0.2,1-0.4,1.4-0.7c0.6-0.5,1-1,1.4-1.5
			c0.1-0.2,0.2-0.4,0.2-0.5C4.6,10,4.5,10,4.3,10c-0.2,0-0.5,0.2-0.9,0.5C2.7,11,2.1,11.9,1.6,13z"/>
		<path d="M9.7,12c0.1-0.1,0.2-0.2,0.3-0.3c1.7-1.7,2.9-2.6,3.5-2.6c0.3,0,0.5,0.2,0.5,0.5c0,0.3-0.1,0.5-0.4,0.9
			c-1.6,1.9-2.4,3.5-2.4,4.9c0,0.5,0.1,0.9,0.4,1.3c0.1,0.2,0.2,0.3,0.2,0.5c0,0.1,0,0.2-0.1,0.3c-0.1,0.1-0.2,0.2-0.4,0.2
			c-0.3,0-0.6-0.2-0.9-0.6c-0.2-0.4-0.3-0.9-0.3-1.5c0-1.1,0.4-2.4,1.3-3.8c-1.1,0.7-2.2,2-3.2,3.9c-0.3,0.5-0.5,0.7-0.8,0.7
			c-0.1,0-0.3,0-0.4-0.1c-0.1-0.1-0.2-0.3-0.2-0.5c0-0.5,0.5-1.6,1.6-3.6c0.6-1,1-1.8,1.3-2.3c0.3-0.5,0.6-0.7,0.8-0.7
			c0.1,0,0.2,0,0.3,0.1C10.9,9.6,11,9.7,11,9.9c0,0.2-0.1,0.4-0.4,0.8C10.2,11.2,10,11.6,9.7,12z"/>
		<path d="M24,2.1c-1.7,0.3-3.2,0.6-4.7,1c-0.3,0.1-0.5,0.2-0.7,0.2c-0.2,0-0.4-0.1-0.5-0.3C18.1,2.8,18,2.7,18,2.6
			c0-0.4,0.3-0.6,0.8-0.8c1.4-0.4,3-0.8,4.9-1.2C26.1,0.2,28.4,0,30.6,0c0.7,0,1.2,0.1,1.5,0.1c0.2,0.1,0.3,0.2,0.3,0.5
			c0,0.4-0.3,0.6-0.9,0.7c-0.5,0.1-1.3,0.1-2.3,0.1c-2,0.1-3.4,0.2-4.1,0.4c0.2,0.1,0.3,0.2,0.3,0.4S25.3,2.7,25,3.1
			c-1.6,2.3-3.1,5-4.6,7.9c-1.1,2.3-1.9,4.3-2.4,6c-0.1,0.5-0.3,0.8-0.6,0.8c-0.3,0-0.5-0.1-0.6-0.4c-0.1-0.2-0.2-0.4-0.2-0.5
			c0-0.8,0.7-2.6,2.2-5.6c0.9-1.9,1.8-3.5,2.6-4.9c0.3-0.5,1.1-1.8,2.3-3.7L24,2.1z"/>
		<path d="M28,12.2c0.8-0.9,1.8-1.7,2.8-2.6c0.4-0.3,0.8-0.6,1.2-0.8c0.2-0.1,0.4-0.2,0.4-0.2c0.1,0,0.3,0.1,0.4,0.3
			c0.1,0.1,0.1,0.2,0.1,0.3c0,0.1-0.2,0.4-0.5,0.6c-0.9,0.7-1.3,1.2-1.3,1.5c0,0.2,0.1,0.3,0.3,0.3c0.4,0,1-0.3,1.9-0.9
			c0.2-0.1,0.3-0.1,0.4-0.1c0.1,0,0.1,0,0.2,0.1c0.1,0.1,0.1,0.2,0.1,0.2c0,0.3-0.3,0.6-1.1,1.2c-0.7,0.5-1.4,0.8-2.1,0.8
			c-0.3,0-0.5-0.1-0.7-0.2c-0.2-0.1-0.3-0.3-0.3-0.6c0-0.2,0.1-0.5,0.3-0.7c-0.7,0.5-1.4,1.3-2.3,2.4c-0.5,0.7-1,1.6-1.5,2.6
			C26,16.8,25.8,17,25.5,17c-0.3,0-0.5-0.1-0.5-0.4s0.2-1,0.7-2.3c0.7-1.9,1.5-3.3,2.3-4.3C28.5,9.3,28.9,9,29.3,9
			c0.1,0,0.2,0,0.3,0.1c0.1,0.1,0.2,0.2,0.2,0.3c0,0.1-0.1,0.3-0.3,0.5c0,0-0.3,0.3-0.7,0.8C28.4,11.3,28.2,11.7,28,12.2z"/>
		<path d="M34.5,13.9v0.2c0,0.2,0,0.3,0.1,0.5c0.2,0.3,0.5,0.5,1,0.5c1,0,2.3-0.8,3.6-2.4c0.2-0.3,0.5-0.4,0.6-0.4
			c0.1,0,0.2,0,0.3,0.1c0,0.1,0.1,0.1,0.1,0.2c0,0.3-0.4,0.9-1.2,1.7c-0.6,0.6-1.3,1.1-2,1.5s-1.4,0.6-2,0.6c-0.6,0-1.1-0.2-1.5-0.6
			c-0.2-0.3-0.4-0.7-0.4-1.2c0-1.4,0.7-2.8,2-4.2c1.1-1.1,2-1.7,2.8-1.7c0.2,0,0.4,0.1,0.6,0.2C38.9,9,39,9.3,39,9.5
			c0,0.4-0.2,1-0.6,1.6C37.5,12.5,36.2,13.4,34.5,13.9z M34.8,13c0.6-0.2,1-0.4,1.4-0.7c0.6-0.5,1-1,1.4-1.5
			c0.1-0.2,0.2-0.4,0.2-0.5c0-0.2-0.1-0.3-0.2-0.3c-0.2,0-0.5,0.2-0.9,0.5C35.9,11,35.3,11.9,34.8,13z"/>
		<path d="M52,0.2c0.6,0,1,0.2,1.3,0.6c0.2,0.3,0.4,0.7,0.4,1.2c0,0.8-0.3,1.7-0.8,2.8c-0.5,0.9-1.1,1.7-1.8,2.4
			c-0.5,0.5-0.8,0.7-1.1,0.7c-0.2,0-0.3-0.1-0.5-0.3c-0.1-0.1-0.2-0.3-0.2-0.4c0-0.3,0.3-0.6,0.8-1c0.7-0.5,1.3-1.1,1.7-1.8
			c0.6-0.9,0.9-1.7,0.9-2.3c0-0.3-0.1-0.4-0.2-0.6S52.2,1.3,52,1.3c-0.5,0-1.1,0.3-2,1c-1,0.8-2,1.8-3.1,3.1
			c-1.4,1.6-2.4,3.3-3.1,4.9c-0.7,1.7-1.1,3.1-1.1,4.3c0,0.6,0.2,1,0.5,1.4c0.4,0.4,0.8,0.7,1.3,0.7c0.9,0,2-0.7,3.4-2.1
			c0.4-0.4,0.9-1,1.5-1.9c0.4-0.5,0.6-0.9,0.7-1.1c0.1-0.2,0.3-0.4,0.4-0.4c0.2,0,0.3,0.1,0.3,0.3c0,0.4-0.5,1.2-1.4,2.5
			c-0.8,1.1-1.6,2-2.6,2.7c-1.1,0.8-2.1,1.2-3,1.2c-1,0-1.7-0.4-2.3-1.3c-0.3-0.6-0.5-1.2-0.5-1.9c0-1.8,0.9-4.1,2.6-6.9
			c1.5-2.4,3-4.2,4.6-5.7C49.8,0.8,51,0.2,52,0.2z"/>
		<path d="M55.1,14.3c-0.3,0.5-0.5,0.9-0.8,1.2c-0.5,0.6-1,1-1.6,1c-0.5,0-0.8-0.2-1.1-0.6c-0.2-0.3-0.2-0.6-0.2-1
			c0-0.9,0.3-2,0.9-3.1c0.7-1.3,1.4-2.2,2.4-2.9c0.6-0.4,1.2-0.6,1.8-0.6c0.3,0,0.7,0.1,0.9,0.3c0.2,0.2,0.3,0.4,0.3,0.6
			c0,0.2-0.1,0.4-0.2,0.8c0.1,0.2,0.2,0.3,0.2,0.5c0,0.2-0.1,0.5-0.3,0.9c-0.2,0.4-0.5,1-0.7,1.6c-0.3,0.7-0.4,1.3-0.4,1.7
			c0,0.4,0.1,0.6,0.3,0.9c0.1,0.1,0.2,0.2,0.5,0.3c0.2,0.1,0.3,0.3,0.3,0.5c0,0.2-0.1,0.3-0.2,0.4c-0.1,0.1-0.3,0.2-0.4,0.2
			c-0.5,0-0.8-0.2-1.2-0.6C55.2,16,55,15.6,55,15.1C55,14.9,55.1,14.7,55.1,14.3z M56.7,10.1c-0.1-0.2-0.2-0.3-0.3-0.4
			c-0.1-0.1-0.2-0.1-0.4-0.1c-0.6,0-1.3,0.6-2.1,1.7c-0.8,1.2-1.2,2.3-1.2,3.1c0,0.2,0,0.4,0.1,0.5C52.8,15,53,15,53.1,15
			c0.4,0,0.9-0.4,1.4-1.3c0.3-0.5,0.7-1.2,1.1-2.1c0.3-0.6,0.5-1,0.6-1.2C56.4,10.4,56.5,10.3,56.7,10.1z"/>
		<path d="M63.8,8c0.5,0,0.9,0.1,1.2,0.3c0.3,0.2,0.4,0.5,0.4,0.8c0,0.5-0.2,1-0.6,1.4c-0.3,0.4-0.9,0.8-1.6,1.1
			c-0.4,0.1-0.7,0.2-1,0.2c-0.3,0-0.5-0.2-0.5-0.5c0-0.2,0.1-0.4,0.3-0.5c0.1,0,0.3-0.1,0.9-0.2c0.3-0.1,0.6-0.2,0.9-0.4
			c0.2-0.2,0.3-0.4,0.3-0.6c0-0.2-0.1-0.3-0.2-0.4s-0.3-0.1-0.4-0.1c-0.5,0-1,0.2-1.6,0.6c-0.7,0.4-1,1-1,1.6c0,0.4,0.2,1,0.7,1.6
			c0.5,0.7,0.7,1.3,0.7,1.8c0,0.7-0.3,1.3-1,1.7c-0.4,0.3-0.9,0.4-1.4,0.4c-0.8,0-1.4-0.3-1.8-0.9c-0.3-0.4-0.4-0.9-0.4-1.5
			c0-0.6,0.2-1.2,0.5-1.6c0.2-0.3,0.4-0.4,0.7-0.4c0.2,0,0.3,0.1,0.3,0.3c0,0.1,0,0.2-0.1,0.3c-0.2,0.4-0.3,0.8-0.3,1.3
			c0,0.4,0.2,0.8,0.4,1c0.3,0.3,0.6,0.4,0.9,0.4s0.6-0.1,0.8-0.3c0.2-0.2,0.2-0.4,0.2-0.7c0-0.4-0.2-0.8-0.6-1.4
			c-0.6-0.8-0.8-1.5-0.8-2.1c0-0.8,0.5-1.6,1.4-2.2C61.9,8.3,62.8,8,63.8,8z"/>
		<path d="M68.3,14.3c-0.3,0.5-0.6,0.9-0.8,1.2c-0.5,0.6-1.1,1-1.6,1c-0.4,0-0.8-0.2-1.1-0.6c-0.2-0.3-0.2-0.6-0.2-1
			c0-0.9,0.3-2,0.9-3.1c0.7-1.3,1.4-2.2,2.4-2.9c0.6-0.4,1.2-0.6,1.8-0.6c0.3,0,0.7,0.1,0.9,0.3c0.2,0.2,0.3,0.4,0.3,0.6
			c0,0.2-0.1,0.4-0.2,0.8c0.1,0.2,0.2,0.3,0.2,0.5c0,0.2-0.1,0.5-0.3,0.9c-0.2,0.4-0.5,1-0.7,1.6c-0.3,0.7-0.4,1.3-0.4,1.7
			c0,0.4,0.1,0.6,0.3,0.9c0.1,0.1,0.2,0.2,0.5,0.3c0.2,0.1,0.3,0.3,0.3,0.5c0,0.2-0.1,0.3-0.2,0.4C70.1,16.9,70,17,69.8,17
			c-0.4,0-0.8-0.2-1.2-0.6c-0.3-0.3-0.4-0.7-0.4-1.2C68.3,14.9,68.3,14.7,68.3,14.3z M69.9,10.1c-0.1-0.2-0.2-0.3-0.3-0.4
			s-0.2-0.1-0.4-0.1c-0.6,0-1.3,0.6-2.1,1.7c-0.8,1.2-1.2,2.3-1.2,3.1c0,0.2,0,0.4,0.1,0.5c0.1,0.1,0.2,0.2,0.4,0.2
			c0.4,0,0.9-0.4,1.4-1.3c0.3-0.5,0.7-1.2,1.1-2.1c0.3-0.6,0.5-1,0.6-1.2C69.6,10.4,69.7,10.3,69.9,10.1z"/>
	</g>
	<g>
		<path class="st0" d="M7.6,26.3c0,0.9-0.6,1.5-1.5,1.5H5.3v1.1H4.3v-4.1h1.8C7,24.8,7.6,25.4,7.6,26.3z M6.5,26.3
			c0-0.4-0.2-0.5-0.6-0.5H5.3v1.1H6C6.3,26.9,6.5,26.7,6.5,26.3z"/>
		<path class="st0" d="M11.7,28.9L11.7,28.9l-1.1,0.1l-0.2-0.5H8.8l-0.2,0.5H7.4v-0.1l1.9-4.1h0.5L11.7,28.9z M9.2,27.5h0.8l-0.4-1
			L9.2,27.5z"/>
		<path class="st0" d="M15.6,24.8v4.1h-0.4l-2.1-2.1l0,0.7v1.3h-1v-4.1h0.4l2.1,2l0-0.7v-1.3L15.6,24.8L15.6,24.8z"/>
		<path class="st0" d="M20.3,28.9L20.3,28.9l-1.1,0.1l-0.2-0.5h-1.5l-0.2,0.5H16v-0.1l1.9-4.1h0.5L20.3,28.9z M17.8,27.5h0.8l-0.4-1
			L17.8,27.5z"/>
		<path class="st0" d="M24.4,26.9c0,1.2-0.8,2-2.1,2h-1.6v-4.1h1.6C23.5,24.8,24.4,25.6,24.4,26.9z M23.3,26.9c0-0.7-0.4-1.1-1-1.1
			h-0.5V28h0.5C22.9,28,23.3,27.6,23.3,26.9z"/>
		<path class="st0" d="M27.6,28v1H25v-4.1h2.6v1h-1.5v0.6h1.4v0.9h-1.4V28H27.6z"/>
		<path class="st0" d="M31.9,28.9L31.9,28.9l-1.2,0L30,27.7h-0.6v1.3h-1.1v-4.1h1.7c0.9,0,1.6,0.6,1.6,1.4c0,0.5-0.3,0.9-0.7,1.2
			L31.9,28.9z M29.4,26.8h0.6c0.3,0,0.5-0.2,0.5-0.5c0-0.3-0.2-0.5-0.5-0.5h-0.6V26.8z"/>
		<path class="st0" d="M32.5,24.8h1.1v4.1h-1.1V24.8z M32.5,24.4l0.8-1.1l0.8,0.4v0l-0.9,0.8L32.5,24.4
			C32.5,24.5,32.5,24.4,32.5,24.4z"/>
		<path class="st0" d="M38.2,28.9L38.2,28.9L37,28.9l-0.2-0.5h-1.5L35,28.9h-1.1v-0.1l1.9-4.1h0.5L38.2,28.9z M35.7,27.5h0.8l-0.4-1
			L35.7,27.5z"/>
		<path class="st0" d="M39.6,27.6h1c0,0.3,0.2,0.4,0.6,0.4c0.4,0,0.6-0.1,0.6-0.4s-0.3-0.3-0.7-0.4c-1.1-0.1-1.5-0.6-1.5-1.3
			c0-0.7,0.7-1.2,1.6-1.2s1.6,0.5,1.6,1.3h-1c0-0.3-0.2-0.4-0.6-0.4c-0.4,0-0.5,0.1-0.5,0.4c0,0.2,0.2,0.3,0.6,0.4
			c1.2,0.1,1.6,0.6,1.6,1.3c0,0.8-0.7,1.3-1.7,1.3C40.2,29,39.6,28.5,39.6,27.6z"/>
		<path class="st0" d="M43.6,24.8h1.1v4.1h-1.1V24.8z"/>
		<path class="st0" d="M49.1,24.8v4.1h-0.4l-2.1-2.1l0,0.7v1.3h-1v-4.1H46l2.1,2l0-0.7v-1.3L49.1,24.8L49.1,24.8z"/>
		<path class="st0" d="M54,25.8h-1v3.1h-1.1v-3.1h-1v-1h3L54,25.8L54,25.8z"/>
		<path class="st0" d="M58,28.9L58,28.9l-1.2,0.1l-0.2-0.5h-1.5l-0.2,0.5h-1.2v-0.1l1.9-4.1h0.5L58,28.9z M55.5,27.5h0.8l-0.4-1
			L55.5,27.5z"/>
		<path class="st0" d="M58,26.9c0-1.2,0.8-2.1,2.1-2.1c1.1,0,1.8,0.6,2,1.5H61c-0.2-0.3-0.5-0.5-0.9-0.5c-0.6,0-1,0.4-1,1.1
			c0,0.7,0.4,1.1,1,1.1c0.4,0,0.8-0.2,0.9-0.6h1.1c-0.2,1-0.9,1.6-2,1.6C58.9,29,58,28.1,58,26.9z"/>
		<path class="st0" d="M62.5,26.9c0-1.2,0.8-2.1,2.1-2.1c1.1,0,1.8,0.6,2,1.5h-1.1c-0.2-0.3-0.5-0.5-0.9-0.5c-0.6,0-1,0.4-1,1.1
			c0,0.7,0.4,1.1,1,1.1c0.4,0,0.8-0.2,0.9-0.6h1.1c-0.2,1-0.9,1.6-2,1.6C63.3,29,62.5,28.1,62.5,26.9z"/>
	</g>
</g>
</svg>
